<?xml version="1.0" encoding="iso-8859-1"?>
<!-- Generator: Adobe Illustrator 16.0.0, SVG Export Plug-In . SVG Version: 6.00 Build 0)  -->
<!DOCTYPE svg PUBLIC "-//W3C//DTD SVG 1.1//EN" "http://www.w3.org/Graphics/SVG/1.1/DTD/svg11.dtd">
<svg version="1.1" id="Capa_1" xmlns="http://www.w3.org/2000/svg" xmlns:xlink="http://www.w3.org/1999/xlink" x="0px" y="0px"
	 width="188.407px" height="188.407px" viewBox="0 0 188.407 188.407" style="enable-background:new 0 0 188.407 188.407;"
	 xml:space="preserve">
<g>
	<path d="M186.222,129.151c-7.324-1.271-12.846,3.283-19.761-3.503c-1.807-1.772-4.417-0.773-5.245,1.385
		c-5.935,15.489-18.281,8.006-23.938-2.843c-1.096-2.1-4.199-1.918-5.34,0c-3.91,9.565-11.439,10.743-22.589,3.534
		c-1.771-1.549-4.676-1.028-5.342,1.41c-4.854,17.781-21.817,12.896-27.043-1.715c-0.263-0.736-0.829-1.093-1.417-1.157
		c-1.189-1.488-3.882-1.934-4.81,0.153c-6.685,15.026-19.093,12.726-26.816,0.02c-1.394-2.293-4.272-1.498-5.186,0.678
		c-6.495,15.458-25.42,15.103-25.083-3.479c0.037-2.058-3.044-2.462-3.565-0.482c-6.096,23.158,22.241,27.174,32.057,10.175
		c10.139,11.529,25.343,13.895,32.594-1.621c6.186,17.017,26.394,20.364,33.905,3.432c9.538,6.372,18.624,5.371,25.792-3.682
		c8.742,12.481,24.319,17.079,31.234,1.678c6.346,4.294,10.556,1.29,19.738,2.026C188.834,135.436,189.617,129.741,186.222,129.151z
		"/>
	<path d="M174.748,154.104c-2.873,4.72-3.866,8.95-10.02,11.257c-7.575,2.842-15.115-3.939-18.848-9.499
		c-1.288-1.919-4.412-2.288-5.615,0c-5.273,10.029-16.951,7.58-21.934-2.099c-1.225-2.381-5.368-1.956-5.877,0.768
		c-2.8,15.004-15.372,16.592-23.792,5.717c0.919-2.928-3.875-4.921-5.182-2.055c-7.068,15.503-20.867,13.771-28.876-0.064
		c-1.39-2.401-4.504-1.559-5.402,0.706c-6.509,16.424-16.647,8.611-22.336-2.694c-1.108-2.203-4.268-1.44-4.936,0.645
		c-3.109,9.71-8.231,11.523-16.86,14.035c-1.625,0.474-1.374,3.294,0.413,3.056c9.887-1.318,15.287-3.077,19.328-10.44
		c8.302,12.964,19.892,15.612,27.669,1.971c10.084,12.623,26.283,14.062,34.309-0.956c8.915,12.127,23.866,11.53,29.853-1.685
		c7.724,9.111,18.966,10.391,26.744,0.195c11.575,11.638,35.248,14.243,36.092-7.574
		C179.583,152.786,176.019,152.015,174.748,154.104z"/>
	<path d="M53.172,37.458c-1.938,0.564-2.702,2.019-2.643,3.488c-13.732,2.029-22.622,15.578-23.683,29.206
		C25.395,88.798,41.233,99.751,58.405,98.36c17.558-1.421,28.98-17.121,28.464-33.994C86.353,47.513,70.388,32.439,53.172,37.458z
		 M56.031,89.836c-12.603,1.034-20.756-7.477-20.515-19.684c0.253-12.794,10.056-21.231,21.42-24.604
		c0.208-0.062,0.358-0.168,0.527-0.262c11.078,1.728,19.456,5.943,20.633,19.078C79.318,77.989,69.314,88.744,56.031,89.836z"/>
	<path d="M37.193,36.895c-2.067-2.249-4.357-4.225-6.702-6.175c-2.325-1.934-4.791-5.676-8.069-5.37
		c-1.736,0.162-2.912,1.263-3.033,3.033c-0.23,3.359,3.082,5.009,5.491,6.722c2.754,1.957,5.615,3.708,8.171,5.933
		C35.887,43.508,39.768,39.696,37.193,36.895z"/>
	<path d="M18.188,47.009c1.102,0.133,0.128-0.027-0.163-0.118c-0.447-0.141-0.885-0.31-1.322-0.478
		c-0.495-0.189-0.985-0.393-1.474-0.597c-0.033-0.014-0.051-0.021-0.1-0.043c-0.466-0.895-1.267-1.616-2.298-1.939
		C10.99,43.255,8.19,41.872,6.2,42.497c-1.125,0.354-2.304,1.285-2.523,2.523c0,0-0.001,0.005-0.001,0.007
		c-0.208,1.173-0.118,2.699,0.929,3.515c0.583,0.452,1.265,0.772,1.976,1.048c-0.576-0.002-0.111,0.025,0.41,0.146
		c0.369,0.127,0.733,0.257,1.113,0.358c0.916,0.308,1.831,0.621,2.742,0.94c0.523,0.185,1.062,0.201,1.583,0.107
		c1.873,0.498,3.924,1.062,5.76,0.95C21.527,51.887,21.384,47.396,18.188,47.009z"/>
	<path d="M12.469,75.583c-1.402,1.175-3.038,2.096-4.632,2.979c-0.824,0.457-1.676,0.93-2.559,1.263
		c-0.529,0.199-1.371,0.032-0.207,0.245c-0.578-0.105-1.126-0.116-1.701-0.178c-4.847-0.523-4.406,8.229,0.937,6.925
		c1.968-0.48,3.979-2.358,5.652-3.561c1.941-1.395,3.879-2.92,5.479-4.704C17.267,76.514,14.53,73.854,12.469,75.583z"/>
	<path d="M24.819,92.928c-1.642,2.52-3.139,5.132-4.701,7.701c-1.693,2.783-4.561,4.858-4.937,8.188
		c-0.24,2.126,2.088,3.179,3.807,2.9c3.515-0.57,5.23-5.044,6.515-7.942c1.326-2.99,2.141-6.126,3.203-9.21
		C29.522,92.19,26.082,90.988,24.819,92.928z"/>
	<path d="M58.038,101.985c-0.346-1.779-3.097-1.694-3.5,0c-1.058,4.453-2.297,8.868-3.336,13.325
		c-0.251,1.076-0.035,2.321,0.818,3.095c-0.14-0.187-0.124-0.15,0.047,0.109c1.017,1.662,3.154,1.472,4.208,0
		c-0.963,1.344,0.682-0.651,0.741-0.753c0.388-0.663,0.421-1.359,0.462-2.103c0.086-1.54,0.267-3.076,0.414-4.611
		C58.181,108.054,58.618,104.964,58.038,101.985z"/>
	<path d="M94.571,104.616c-2.515-3.608-6.509-5.924-8.795-9.65c-1.565-2.552-5.149-0.329-3.94,2.303
		c1.048,2.281,2.649,4.175,4.302,6.042c0.789,0.891,1.597,1.761,2.291,2.729c0.947,1.321,1.336,2.805,3.182,3.062
		c1.062,0.148,2.274-0.062,2.81-1.145c0.05-0.1,0.1-0.2,0.149-0.301C95.028,106.734,95.204,105.525,94.571,104.616z"/>
	<path d="M109.206,77.696c-4.233,0.223-8.467,0.437-12.7,0.648c-3.809,0.19-3.809,5.72,0,5.911c4.234,0.212,8.467,0.426,12.7,0.647
		C113.854,85.147,113.854,77.453,109.206,77.696z"/>
	<path d="M109.206,36.141c-3.84-0.08-6.944,4.532-9.245,7.211c-2.473,2.878-4.646,5.997-7.167,8.837
		c-1.926,2.17,1.043,5.175,3.19,3.19c2.542-2.352,4.85-4.937,7.29-7.392c1.378-1.386,2.804-2.782,4.368-3.959
		c1.923-1.445,3.434-1.914,4.289-4.311C112.566,37.938,110.932,36.177,109.206,36.141z"/>
	<path d="M90.755,17.318c-2.273,1.458-3.789,3.826-5.351,5.991c-1.821,2.524-3.552,5.06-5.658,7.362
		c-2.385,2.607,1.325,6.358,3.886,3.886c1.988-1.92,3.748-4.013,5.473-6.169c1.852-2.314,4.24-4.433,5.764-6.957
		C96.399,18.899,93.319,15.674,90.755,17.318z"/>
	<path d="M62.355,13.849c-1.108-0.98-2.558-0.98-3.666,0c-2.175,1.924-1.172,5.283-0.991,7.844c0.208,2.938,0.431,5.873,0.698,8.807
		c0.249,2.736,4.003,2.736,4.252,0c0.267-2.935,0.49-5.868,0.698-8.807C63.527,19.133,64.53,15.772,62.355,13.849z"/>
</g>
<g>
</g>
<g>
</g>
<g>
</g>
<g>
</g>
<g>
</g>
<g>
</g>
<g>
</g>
<g>
</g>
<g>
</g>
<g>
</g>
<g>
</g>
<g>
</g>
<g>
</g>
<g>
</g>
<g>
</g>
</svg>
